/* XPM */
static char *oacapture32[] = {
/* columns rows colors chars-per-pixel */
"32 32 174 2 ",
"   c #0F0D0C",
".  c #140F0E",
"X  c #0D0C10",
"o  c #100F10",
"O  c #151313",
"+  c #191615",
"@  c #1E1A16",
"#  c #16161A",
"$  c #191719",
"%  c #1C1B1B",
"&  c #211E1C",
"*  c #22211E",
"=  c #28251F",
"-  c #201F22",
";  c #252322",
":  c #2A2621",
">  c #2E2925",
",  c #2A2728",
"<  c #2C2B29",
"1  c #312B25",
"2  c #322D2A",
"3  c #36312D",
"4  c #39322D",
"5  c #2E3233",
"6  c #353332",
"7  c #3C3631",
"8  c #3F3933",
"9  c #373839",
"0  c #3E3938",
"q  c #403630",
"w  c #433A34",
"e  c #413C39",
"r  c #483F39",
"t  c #44413B",
"y  c #4C423B",
"u  c #54463E",
"i  c #53483F",
"p  c #464541",
"a  c #4B4543",
"s  c #4A4842",
"d  c #494C49",
"f  c #544741",
"g  c #554A43",
"h  c #5A4D46",
"j  c #524E4B",
"k  c #584F4A",
"l  c #5D5147",
"z  c #53524E",
"x  c #5D524B",
"c  c #545352",
"v  c #5C5552",
"b  c #604C45",
"n  c #635247",
"m  c #63544B",
"M  c #6C564C",
"N  c #675A4D",
"B  c #695A4F",
"V  c #70554D",
"C  c #725A4F",
"Z  c #785B4D",
"A  c #635650",
"S  c #655A53",
"D  c #6C5C53",
"F  c #695F5A",
"G  c #725E54",
"H  c #7F5F50",
"J  c #6E6055",
"K  c #6C6158",
"L  c #746155",
"P  c #7E6354",
"I  c #746459",
"U  c #79655B",
"Y  c #7C695D",
"T  c #6C6461",
"R  c #716662",
"E  c #746964",
"W  c #7D6D65",
"Q  c #766D69",
"!  c #7F7065",
"~  c #7F756A",
"^  c #9B684E",
"/  c #856152",
"(  c #8C6353",
")  c #866857",
"_  c #84675A",
"`  c #836B5D",
"'  c #8A6C5D",
"]  c #966656",
"[  c #9A6F56",
"{  c #966A59",
"}  c #986E5C",
"|  c #95715D",
" . c #9E735F",
".. c #836E63",
"X. c #8C6E64",
"o. c #906F65",
"O. c #847164",
"+. c #8A7263",
"@. c #8E7967",
"#. c #84756C",
"$. c #8A7569",
"%. c #8D7A6C",
"&. c #937363",
"*. c #9C7666",
"=. c #9F7861",
"-. c #917668",
";. c #927C6D",
":. c #9B7C6D",
">. c #807673",
",. c #8A7D75",
"<. c #8F7F79",
"1. c #967F71",
"2. c #9D7F75",
"3. c #907F78",
"4. c #A57663",
"5. c #A37A65",
"6. c #A07A69",
"7. c #A27D74",
"8. c #9D806E",
"9. c #8D8177",
"0. c #8F847B",
"q. c #948174",
"w. c #9C8373",
"e. c #92837D",
"r. c #9E8B7B",
"t. c #A68061",
"y. c #AB8063",
"u. c #AC816A",
"i. c #A28475",
"p. c #AC8B75",
"a. c #A38479",
"s. c #A48C7C",
"d. c #A98E7C",
"f. c #B08572",
"g. c #B38C7B",
"h. c #A6917D",
"j. c #A8917B",
"k. c #B2947C",
"l. c #BA9B7E",
"z. c #978A81",
"x. c #9C8C83",
"c. c #9E9184",
"v. c #A69280",
"b. c #AC9383",
"n. c #AC9980",
"m. c #A4948A",
"M. c #A9938A",
"N. c #A29A8E",
"B. c #AB9A8D",
"V. c #B59585",
"C. c #B49A86",
"Z. c #B39B8B",
"A. c #B89C8C",
"S. c #AE9A91",
"D. c #B29D93",
"F. c #B99E91",
"G. c #B5A28E",
"H. c #BEA38F",
"J. c #B4A293",
"K. c #BCA493",
"L. c #BAA49A",
"P. c #BDAA9E",
"I. c #BBA6A0",
"U. c #BCACA2",
"Y. c #C0A28D",
"T. c #C7A791",
"R. c #C2AC9B",
"E. c #C3ADA3",
"W. c #C5B1A4",
"Q. c #CAB3A6",
"!. c #CBB8AB",
"~. c #D1BDAF",
"^. c #D8C2AE",
"/. c None",
/* pixels */
"/./././././././././././././././././././././././././././././././.",
"/./././././././././././././././././././././././././././././././.",
"/./././././././././././.o + % * * * % O /./././././././././././.",
"/./././././././././.+ = > 3 4 8 8 8 w 7 4 : O /././././././././.",
"/./././././././.. = 1 4 w t y f i f f s u r w > /./././././././.",
"/././././././.@ > 4 w y u l l m m N N N N l h y t $ /./././././.",
"/./././././.& 1 q y i n m G L L L Y I Y U I L N l t - /././././.",
"/././././.& 2 w i l N L Y O.O.$.%.;.;.%.@.+.` Y L m s # /./././.",
"/./././.$ 2 e i m M I ` ..-.:.%.6.w.w.:.+.` X._ I B x p /./././.",
"/./././.; 7 y h D U ....o.w.s.d.v.d.b.s.i.w.:.;.@.` I x 5 /././.",
"/././.@ 2 r h M I ` %.w.r.v.k.C.A.F.F.F.J.F.D.M.x.z.>.T c /././.",
"/././.; 0 g F E #.<.x.m.B.D.L.L.E.W.W.W.E.R.J.b.s.q...D j ; /./.",
"/./.o , e k D Q #.,.;.8.w.u.f.k.l.k.f.f.5.5.5.| ( / P V h 9 /./.",
"/./.O 2 w u b V Z / / / / ( ( ] ] ] { } =.4.6.6.-.O...W F d /./.",
"/./.% 2 r f m G I U O.~ :.j.C.H.J.N.B.G.J.L.R.S.S.m.z.,.R c /./.",
"/./.% 9 a x R #.<.0.x.B.S.L.P.E.W.E.E.Q.E.Q.W.I.L.S.x.e.Q c X /.",
"/./.% 6 a S T #.0.z.m.S.J.P.U.E.!.^.~.!.!.!.Q.P.J.B.c.,.R z /./.",
"/./.$ 6 a v R >.<.r.m.B.D.J.K.G.Z.C.T.C.V.b.p.i.:.;.X.U A s /./.",
"/./.O , e f n V G P _ ' ' &.X.*.*.:.n.g.T.Z.a.p.r.{ ) G h 6 /./.",
"/././.- 4 r g n M G ` +.&.8.k.s.d.s.g.d.p.i.p.y.t.#.I D j ; /./.",
"/././.% 2 e g m D Y ..$.,.i.a.i.i.a.w.a.w.p.*.^ | ;.W F s /././.",
"/././.o , e j F E #.,.r.r.M.Z.J.J.D.G.G.C.M.w.:.q.#.I v < /././.",
"/./././.% 2 r k S I ..>.,.1.s.s.h.h.s.s.s.w.q.%.W I x t /./././.",
"/././././.- 4 r k A G G Y O...$.$.:.,.%.O...Y E I x t + /./././.",
"/././././.  ; 7 r g l A G I Y Y Y U U U I G D m g t % /././././.",
"/./././././.  ; 2 w u g x D D J D I J I D N x i w + /./././././.",
"/./././././././.@ 1 4 w y i g h l l l g i y q 1 /./././././././.",
"/./././././././././.& : 2 4 q w w w w 4 4 > O /././././././././.",
"/./././././././././././.. & * : : = & + /./././././././././././.",
"/./././././././././././././././././././././././././././././././.",
"/./././././././././././././././././././././././././././././././.",
"/./././././././././././././././././././././././././././././././."
};
