/* XPM */
static char *oalive[] = {
/* columns rows colors chars-per-pixel */
"32 32 191 2 ",
"   c #0B0F0C",
".  c #0D120E",
"X  c #10130F",
"o  c #0F1411",
"O  c #0F1817",
"+  c #0F1818",
"@  c #121512",
"#  c #181713",
"$  c #151816",
"%  c #1A1915",
"&  c #131A1B",
"*  c #1B1C1B",
"=  c #221C16",
"-  c #241F1A",
";  c #281F1B",
":  c #301A1C",
">  c #1E201F",
",  c #22211F",
"<  c #2B221C",
"1  c #34251C",
"2  c #0F1F24",
"3  c #141E21",
"4  c #1B1F21",
"5  c #2B1F24",
"6  c #152125",
"7  c #1B2224",
"8  c #15252D",
"9  c #1B262B",
"0  c #18282F",
"q  c #152730",
"w  c #162932",
"e  c #1A2B35",
"r  c #162E39",
"t  c #1A2D39",
"y  c #1C313D",
"u  c #242324",
"i  c #2A2424",
"p  c #242529",
"a  c #24292C",
"s  c #2D2A2B",
"d  c #2E2428",
"f  c #302127",
"g  c #3C262F",
"h  c #382D29",
"j  c #352729",
"k  c #38302F",
"l  c #202D39",
"z  c #282D38",
"x  c #242D33",
"c  c #342730",
"v  c #3F2731",
"b  c #372A33",
"n  c #3C2C37",
"m  c #22333E",
"M  c #2D313F",
"N  c #383232",
"B  c #383538",
"V  c #431B1E",
"C  c #46262D",
"Z  c #462D37",
"A  c #5D2731",
"S  c #41313F",
"D  c #41383C",
"F  c #483D3E",
"G  c #53313C",
"H  c #6B2834",
"J  c #1B3342",
"K  c #1F3748",
"L  c #1C384A",
"P  c #173143",
"I  c #1B3D51",
"U  c #243544",
"Y  c #2A3644",
"T  c #263748",
"R  c #253A4C",
"E  c #293B4D",
"W  c #2D3845",
"Q  c #303546",
"!  c #313C4C",
"~  c #3F3541",
"^  c #243F52",
"/  c #3C3F52",
"(  c #453141",
")  c #4E3041",
"_  c #413B4C",
"`  c #533241",
"'  c #5D374A",
"]  c #493F50",
"[  c #583D51",
"{  c #533E53",
"}  c #693A4E",
"|  c #703C49",
" . c #1F4157",
".. c #254256",
"X. c #2A4155",
"o. c #24465C",
"O. c #28485F",
"+. c #2D455C",
"@. c #32445B",
"#. c #3E4557",
"$. c #2A4B66",
"%. c #384D68",
"&. c #394C65",
"*. c #26516E",
"=. c #37506C",
"-. c #2E5674",
";. c #345573",
":. c #46444A",
">. c #4F4053",
",. c #4C485F",
"<. c #44455C",
"1. c #514951",
"2. c #594257",
"3. c #644158",
"4. c #6A4256",
"5. c #434A63",
"6. c #514860",
"7. c #5D4C63",
"8. c #49516C",
"9. c #41516A",
"0. c #5B516D",
"q. c #435D7B",
"w. c #4D5878",
"e. c #455775",
"r. c #525674",
"t. c #644961",
"y. c #714961",
"u. c #744761",
"i. c #685969",
"p. c #6B5B74",
"a. c #775B78",
"s. c #49617A",
"d. c #55607E",
"f. c #914963",
"g. c #356584",
"h. c #3B6582",
"j. c #356886",
"k. c #39728E",
"l. c #3F7691",
"z. c #486885",
"x. c #4B6D8A",
"c. c #466885",
"v. c #536E89",
"b. c #596784",
"n. c #43738E",
"m. c #4D728D",
"M. c #5B758F",
"N. c #407994",
"B. c #4A7994",
"V. c #4B7793",
"C. c #517B96",
"Z. c #5A7B95",
"A. c #547C98",
"S. c #696A88",
"D. c #7C6E8A",
"F. c #69748F",
"G. c #7B738F",
"H. c #657692",
"J. c #6A7D99",
"K. c #617C95",
"L. c #7C7C95",
"P. c #816D86",
"I. c #8C7F99",
"U. c #8C7892",
"Y. c #AB6380",
"T. c #5A839D",
"R. c #63819B",
"E. c #6C829B",
"W. c #718197",
"Q. c #70869F",
"!. c #7C829C",
"~. c #6887A1",
"^. c #6B89A2",
"/. c #678FA8",
"(. c #7688A1",
"). c #7C89A2",
"_. c #7C85A0",
"`. c #6B94AD",
"'. c #84849D",
"]. c #88819A",
"[. c #9A809B",
"{. c #818FA8",
"}. c #8786A2",
"|. c #948AA4",
" X c #8391A9",
".X c #9E98B0",
"XX c #A686A0",
"oX c #AC8BA5",
"OX c #B98DA7",
"+X c #A698B1",
"@X c #B49CB3",
/* pixels */
". @ @ . @ @ . X . o $ $ X $ > X X X # # X X . X @ # 1.$ . @ @ o ",
"$ . @ . . . . @ X X , < # X X X X X . . X . # = X @ # @ . @ @ X ",
", o o @ o F u . @ o & . X . i X X @ % . = . X X . X X X X X . @ ",
". @ o @ = * @ . . @ N * . % > . . @ # % X < X % - @ X i * . @ X ",
"X % . . # . @ @ $ $ * & O $ @ @ @ @ o = # @ @ @ @ . @ % @ X . X ",
". $ @ . o @ @ o & & u > & $ ; % @ @ # @ @ @ # . X X X . X . = @ ",
"o o @ < o o & > 3 & 3 + o + 1 $ o @ @ @ # $ o o @ @ . . X . # X ",
"@ o o o o o & 6 3 6 2 x :.R Z V s p 7 i - o O . @ % @ @ @ @ X X ",
"X @ @ o & > > 6 0 8 w X.i...:.| ~ ~ n b 5 4 @ @ @ @ @ @ $ @ @ @ ",
"o @ o @ > 6 6 8 0 0 t y P ..%.f.a.p.7.2.' C 5 * @ @ o o @ @ o . ",
"@ @ o o > 6 s e e e y y y ..s.OXoXI.U.S.p.[ Z v * @ @ o @ @ @ @ ",
"< @ o & > 6 0 e r m y y ..*.q.XX@X+X XJ.G.a.} G v $ * 5 # @ @ @ ",
"% $ % o 6 6 t e r y U +.O.q.Z.OX+X`.`.(.L.S.0.[ ) p + u # @ # $ ",
"@ o @ O > a e r y L  .$.-.j.Z.|.{./.^.^.K.v.8.] W z b p O % ; . ",
"o @ o p 6 2 m M J  .o.-.j.k.T.!.J./.K.J.Z.v.<.U R t a O + * $ o ",
"o @ . N a 2 e W #.+.$.h.m.K.C.'.J.N.B.B.m.;.@.R U t 3 & & p o o ",
"o @ @ o & 3 P T ! #.;.c.F.I.I.!.A.l.N.x.q.$.^ L J t 9 & O o o d ",
"o o & & & @ Q E R 8.z.n.B.R.)._.J.B.c.z.%...L J J w 6 3 O @ O o ",
"@ * @ @ & + c ] #.0.c.l.!.(.^.|.L.H.w.%.+.^ J J t e 3 & p B   $ ",
"o @ o @ $ & 5 | t.5.e.z.W.(.^.E.J.x.;.^ U J w q e w x 7 * & o o ",
"o @ 5 @ @ & + 5 } 5.p.h.n.T.!.].I.b.%.L t e q q q 9 a 3 h $ @ @ ",
"X o j # o @ + + ` } 6.r.b.v.H.I.G.5.E P e q 8 8 0 6 3 & O % 1 1 ",
"# @   # o @ @ @ ; C ` { 6.&.p.P.D.5.T Y U q q q 8 6 6 & $ @ % @ ",
"@ @ @ @ @ O @ $ @ $ : C G ( 4.u.f.u.@.^ t q e 8 3 3 & $ @ # % % ",
". @ @ . @ * @ @ o o @ 5 5 f Z A H ( #.x 2 3 3 3 3 + 3 d o o $ @ ",
"@ # # D % o @ # @ @ o $ + @ & o O o 4 + 3 3 3 3 O & o o o o @ @ ",
"  @ @ u @ X @ % @ # o o @ @ @ @ $ + O O @ O + & + $ o o o @ @ @ ",
"5 @ @   @ X @ @ # o @ @ S = o @ @ @ + * $ O @ @ # o @ @ @ o @ @ ",
"i @ . @ % @ # $ # o X $ 4 o X @ @ o @ $ # o o O o o $ @ o @ @ o ",
"  . . o % # # o o o o @ X @ o X @ @ @ o o o o @ @ o o @ @ @ # o ",
". * % o @ X @ d # X @ o @ X % @ o @ o @ @ @ @ @ o @ o @ o $ o * ",
". i * . # X . & X @ @ X @ @ @ X X @ @ @ @ @ @ o o o o @ O # & 4 "
};
